<svg width="296" height="57" viewBox="0 0 296 57" fill="none" xmlns="http://www.w3.org/2000/svg">
<path d="M143.483 21.8582V27.7419C142.928 27.6624 142.452 27.5828 142.056 27.5828C139.598 27.5828 137.696 28.2984 136.348 29.7296C135 31.1608 134.287 33.1485 134.287 35.7723V48.6529H128.024V21.8582H133.97V25.9927C135.714 23.2893 138.885 21.8582 143.483 21.8582Z" fill="white"/>
<path d="M123.744 37.2035H103.291C103.688 39.1117 104.56 40.6224 106.066 41.8151C107.572 42.9282 109.475 43.4848 111.694 43.4848C114.548 43.4848 116.926 42.5307 118.75 40.6224L122.238 44.1208C121.048 45.552 119.384 46.8242 117.56 47.5398C115.737 48.2554 113.755 48.6529 111.536 48.6529C108.682 48.6529 106.145 48.0963 104.005 46.9037C101.865 45.7906 100.121 44.2004 98.9315 42.1331C97.7424 40.0659 97.1875 37.7601 97.1875 35.2158C97.1875 32.6715 97.7424 30.3657 98.9315 28.3779C100.121 26.3107 101.706 24.7205 103.767 23.6074C105.828 22.4942 108.127 21.8582 110.664 21.8582C113.201 21.8582 115.499 22.4147 117.481 23.5279C119.463 24.641 121.048 26.2312 122.158 28.2984C123.268 30.3657 123.823 32.6715 123.823 35.3748C123.823 35.7723 123.823 36.4084 123.744 37.2035ZM105.749 28.537C104.401 29.7296 103.609 31.2403 103.291 33.1485H118.036C117.798 31.2403 117.006 29.7296 115.658 28.537C114.31 27.3443 112.646 26.7878 110.664 26.7878C108.682 26.7878 107.097 27.3443 105.749 28.537Z" fill="white"/>
<path d="M97.5047 21.8582L85.9309 48.6529H79.9062L68.3325 21.8582H74.6743L83.0771 41.5765L91.7178 21.8582H97.5047Z" fill="white"/>
<path d="M68.8878 37.2035H48.4355C48.8319 39.1117 49.7039 40.6224 51.2101 41.8151C52.7162 42.9282 54.6188 43.4848 56.8384 43.4848C59.6922 43.4848 62.0704 42.5307 63.8936 40.6224L67.3816 44.1208C66.1925 45.552 64.5278 46.8242 62.7045 47.5398C60.8813 48.2554 58.8995 48.6529 56.6798 48.6529C53.826 48.6529 51.2893 48.0963 49.149 46.9037C47.0086 45.7906 45.2646 44.2004 44.0755 42.1331C42.8865 40.0659 42.3315 37.7601 42.3315 35.2158C42.3315 32.6715 42.8865 30.3657 44.0755 28.3779C45.2646 26.3107 46.8501 24.7205 48.9111 23.6074C50.9722 22.4942 53.2711 21.8582 55.8078 21.8582C58.3445 21.8582 60.6434 22.4147 62.6253 23.5279C64.6071 24.641 66.1925 26.2312 67.3023 28.2984C68.4121 30.3657 68.967 32.6715 68.967 35.3748C68.967 35.7723 68.967 36.4084 68.8878 37.2035ZM50.8137 28.537C49.4661 29.7296 48.6733 31.2403 48.3562 33.1485H63.1009C62.8631 31.2403 62.0704 29.7296 60.7227 28.537C59.3751 27.3443 57.7104 26.7878 55.7286 26.7878C53.826 26.7878 52.1613 27.3443 50.8137 28.537Z" fill="white"/>
<path d="M30.6777 12H36.7817V48.6539H30.6777V12Z" fill="white"/>
<path d="M17.9943 21.8582H25.6045L9.03651 38.5552L5.23145 34.7387L17.9943 21.8582Z" fill="white"/>
<path d="M5.23145 34.6608L8.95724 30.9238L26.635 48.6545H19.1041L5.23145 34.7403V34.6608Z" fill="white"/>
<path d="M6.10397 12H0V48.6539H6.10397V12Z" fill="white"/>
<path fill-rule="evenodd" clip-rule="evenodd" d="M148 56.7178V3.64851L151.649 0L181.5 8.29208V56.7178H173.871V9.96967L159.941 7.28218V56.7178H148Z" fill="white"/>
<path d="M208.388 33.9708H215.37V47.3678C213.577 48.7201 211.502 49.7579 209.143 50.4812C206.784 51.2045 204.41 51.5662 202.02 51.5662C198.592 51.5662 195.51 50.8428 192.774 49.3962C190.038 47.9182 187.884 45.8897 186.311 43.311C184.77 40.7008 184 37.7604 184 34.4897C184 31.2191 184.77 28.2944 186.311 25.7157C187.884 23.1055 190.054 21.0771 192.821 19.6304C195.589 18.1524 198.702 17.4133 202.161 17.4133C205.055 17.4133 207.681 17.9008 210.039 18.8757C212.398 19.8506 214.379 21.2657 215.983 23.1212L211.077 27.6497C208.718 25.1653 205.872 23.9231 202.539 23.9231C200.432 23.9231 198.561 24.3634 196.925 25.244C195.29 26.1245 194.016 27.3667 193.104 28.9706C192.192 30.5744 191.736 32.4142 191.736 34.4897C191.736 36.5339 192.192 38.3579 193.104 39.9617C194.016 41.5656 195.274 42.8235 196.878 43.7355C198.513 44.6161 200.369 45.0564 202.444 45.0564C204.646 45.0564 206.627 44.5846 208.388 43.6412V33.9708ZM232.186 25.244C236.117 25.244 239.136 26.1874 241.243 28.0743C243.35 29.9297 244.404 32.7444 244.404 36.5182V51.0001H237.516V47.8395C236.133 50.1982 233.554 51.3775 229.78 51.3775C227.83 51.3775 226.132 51.0473 224.685 50.3868C223.27 49.7264 222.185 48.8144 221.431 47.6508C220.676 46.4873 220.298 45.1664 220.298 43.6884C220.298 41.3297 221.179 39.4743 222.94 38.122C224.733 36.7697 227.484 36.0936 231.195 36.0936H237.045C237.045 34.4897 236.557 33.2633 235.582 32.4142C234.607 31.5336 233.145 31.0933 231.195 31.0933C229.843 31.0933 228.506 31.3135 227.186 31.7537C225.896 32.1626 224.796 32.7286 223.884 33.452L221.242 28.3102C222.626 27.3353 224.277 26.5805 226.195 26.0459C228.145 25.5113 230.142 25.244 232.186 25.244ZM231.62 46.4244C232.878 46.4244 233.994 46.1413 234.969 45.5753C235.944 44.9777 236.636 44.1129 237.045 42.9808V40.3863H231.997C228.978 40.3863 227.469 41.3769 227.469 43.3582C227.469 44.3016 227.83 45.0564 228.554 45.6224C229.308 46.1571 230.33 46.4244 231.62 46.4244ZM267.433 49.7736C266.709 50.3082 265.813 50.7171 264.744 51.0001C263.706 51.2517 262.605 51.3775 261.442 51.3775C258.423 51.3775 256.08 50.607 254.413 49.066C252.778 47.5251 251.96 45.2608 251.96 42.2732V31.8481H248.045V26.1874H251.96V20.0078H259.319V26.1874H265.64V31.8481H259.319V42.1788C259.319 43.2481 259.586 44.0815 260.121 44.679C260.687 45.2451 261.473 45.5281 262.479 45.5281C263.643 45.5281 264.634 45.2136 265.451 44.5846L267.433 49.7736ZM295.64 38.4051C295.64 38.4994 295.593 39.1598 295.499 40.3863H276.299C276.645 41.9587 277.463 43.2009 278.752 44.1129C280.042 45.0249 281.646 45.4809 283.564 45.4809C284.885 45.4809 286.048 45.2922 287.055 44.9148C288.093 44.506 289.052 43.8771 289.932 43.028L293.848 47.2735C291.458 50.0095 287.967 51.3775 283.375 51.3775C280.514 51.3775 277.982 50.8271 275.781 49.7264C273.579 48.5943 271.881 47.0376 270.686 45.0564C269.491 43.0751 268.893 40.8266 268.893 38.3107C268.893 35.8263 269.475 33.5935 270.639 31.6122C271.834 29.5995 273.453 28.0428 275.498 26.9422C277.573 25.81 279.885 25.244 282.432 25.244C284.916 25.244 287.165 25.7786 289.178 26.8478C291.19 27.9171 292.763 29.458 293.895 31.4707C295.058 33.452 295.64 35.7634 295.64 38.4051ZM282.479 30.8103C280.812 30.8103 279.413 31.282 278.281 32.2255C277.149 33.1689 276.457 34.4583 276.205 36.0936H288.706C288.454 34.4897 287.762 33.2161 286.63 32.2726C285.498 31.2977 284.114 30.8103 282.479 30.8103Z" fill="url(#paint0_linear_2225_4810)"/>
<path d="M152 0L148 3.5V56.5H152V0Z" fill="#D8D0D0"/>
<defs>
<linearGradient id="paint0_linear_2225_4810" x1="157.404" y1="26.3535" x2="176.542" y2="88.9126" gradientUnits="userSpaceOnUse">
<stop offset="9.43019e-07" stop-color="#FF4681"/>
<stop offset="0.7392" stop-color="#9B44F6"/>
</linearGradient>
</defs>
</svg>
